<?xml version="1.0" ?><!DOCTYPE svg  PUBLIC '-//W3C//DTD SVG 1.1//EN'  'http://www.w3.org/Graphics/SVG/1.1/DTD/svg11.dtd'><svg height="32px" id="Layer_1" style="enable-background:new 0 0 32 32;" version="1.1" viewBox="0 0 32 32" width="32px" xml:space="preserve" xmlns="http://www.w3.org/2000/svg" xmlns:xlink="http://www.w3.org/1999/xlink"><g transform="translate(720 192)"><path d="M-716.001-164c-2.209,0-4,1.791-4,4h32c0-2.209-1.791-4-4-4h-0.026v-17.865l0.088,0.35c0.228,0.91,1.041,1.516,1.938,1.516   c0.16,0,0.324-0.02,0.485-0.059c1.072-0.27,1.727-1.355,1.455-2.426l-3.938-9.516h-24l-3.941,9.516   c-0.266,1.07,0.385,2.156,1.457,2.426c0.162,0.039,0.324,0.059,0.486,0.059c0.896,0,1.711-0.604,1.938-1.516l0.086-0.348V-164   h-0.026H-716.001z M-714.001-180c1.106,0,2-0.895,2-2c0,1.105,0.896,2,2,2c1.105,0,2-0.895,2-2c0,1.105,0.896,2,2,2   c1.105,0,2-0.895,2-2c0,1.105,0.896,2,2,2s2-0.895,2-2c0,1.105,0.896,2,2,2s2-0.895,2-2c0,1.105,0.896,2,2,2v16h-6v-10   c0-2.209-1.791-4-4-4s-4,1.791-4,4v10h-6V-180z M-706.001-171c0-0.553,0.447-1,1-1c0.554,0,1,0.447,1,1s-0.446,1-1,1   C-705.554-170-706.001-170.447-706.001-171z"/></g></svg>